<?xml version="1.0" standalone="no"?>
<!DOCTYPE svg PUBLIC "-//W3C//DTD SVG 20010904//EN"
 "http://www.w3.org/TR/2001/REC-SVG-20010904/DTD/svg10.dtd">
<svg version="1.0" xmlns="http://www.w3.org/2000/svg"
 width="1000.000000pt" height="1000.000000pt" viewBox="0 0 1000.000000 1000.000000"
 preserveAspectRatio="xMidYMid meet">
<metadata>
Created by potrace 1.14, written by Peter Selinger 2001-2017
</metadata>
<g transform="translate(0.000000,1000.000000) scale(0.100000,-0.100000)"
fill="#000000" stroke="none">
<path d="M0 5000 l0 -5000 5000 0 5000 0 0 5000 0 5000 -5000 0 -5000 0 0
-5000z m3788 1942 l1213 -832 39 20 c21 11 570 386 1219 835 650 448 1186 815
1191 815 7 0 9 -193 8 -557 l-3 -558 -1155 -758 c-635 -417 -1187 -778 -1227
-803 l-72 -46 -750 481 c-412 265 -752 481 -755 481 -6 0 -1 -410 9 -832 l5
-198 -485 0 -485 0 0 1396 c0 1334 1 1396 18 1392 10 -3 563 -379 1230 -836z
m3672 -2667 l0 -1805 -2460 0 -2460 0 0 1024 0 1024 588 6 c893 9 1416 18
1425 23 4 2 7 -3 7 -11 0 -9 -6 -16 -12 -16 -7 0 -231 -197 -498 -438 l-485
-437 -3 -243 -2 -242 1515 0 1515 0 0 1209 0 1210 198 114 c424 246 667 387
670 387 1 0 2 -812 2 -1805z"/>
</g>
</svg>
